<svg id="Capa_1" data-name="Capa 1" xmlns="http://www.w3.org/2000/svg" viewBox="0 0 669.73 177.59"><defs><style>.cls-1{fill:#fff;}.cls-2{fill:#fefcfd;}</style></defs><title>debito_cards</title><path class="cls-1" d="M338.29,135.11c0-4.7-1.53-5.36-5.67-5.34-26.82.17-53.64,0.09-80.46,0.09-27.15,0-54.31.1-81.46-.1-4.32,0-5.59,1-5.56,5.48q0.31,53.47.09,106.95c-0.09,34.78,25.08,60.39,59.87,60.5,36,0.11,72,0,107.95.12,4.2,0,5.22-1.16,5.21-5.28Q338,216.33,338.29,135.11Zm-28.6,77.53c0,2.46-.5,3.62-3.28,3.54-6.48-.18-13-0.21-19.46,0-3.1.11-3.52-1.28-3.48-3.87,0.12-7.82-.11-15.64.12-23.46,0.1-3.23-.73-4.35-4.1-4.25-8,.23-16,0-24,0.13-2.81.06-3.77-.74-3.68-3.62,0.2-6.32.22-12.65,0-19-0.1-3,1-3.59,3.73-3.55,8.48,0.15,17,.05,25.46.05,8.32,0,16.64.09,25-.06,2.76-.05,3.76.68,3.73,3.61C309.59,179,309.62,195.84,309.69,212.64Z" transform="translate(-165.13 -129.77)"/><path class="cls-2" d="M548.65,147.5c-16-5.2-32.08-5.49-48,.31-29.25,10.62-49.25,40.84-46.53,71.38,1.61,18.09,11,31.63,28.13,38.21,17.39,6.66,33.62,3.87,47.55-9.19,1.08-1,1.79-2.52,3.41-2.93,0.57,0.76,0,1.26-.28,1.79-17,33.91-59.6,47-92.89,28.67a17.34,17.34,0,0,1-5-4.19c-20.88-25.22-26.68-53.9-16-84.49,10.6-30.41,32.38-49.83,64.71-55.78,23.3-4.29,44.8.52,64.13,14.4a13.34,13.34,0,0,1,1.37,1.3Z" transform="translate(-165.13 -129.77)"/><path class="cls-2" d="M466.82,186.37c15.72-34.5,62-48.66,94.4-28.85a14.51,14.51,0,0,1,3.46,3.06c21.38,25.59,27.18,54.56,16,85.79-11.09,31-33.84,49.72-66.47,55.23-22.16,3.74-42.73-1.26-61.22-14.22-0.6-.42-1.18-0.86-1.95-1.42,2.2-1,3.83.11,5.47,0.54,48.76,12.92,92.45-26,89.39-73-1.22-18.74-11.56-32.14-29.1-38.73-17.27-6.48-33.12-2.73-46.75,9.82l-2.57,2.33Z" transform="translate(-165.13 -129.77)"/><path class="cls-2" d="M549.16,147c0.33,0.12.64,0.33,0.34,0.66a1.8,1.8,0,0,1-.85-0.15Z" transform="translate(-165.13 -129.77)"/><path class="cls-2" d="M467.52,186.95l-0.82.37,0.12-.94Z" transform="translate(-165.13 -129.77)"/><path class="cls-1" d="M834.77,220.73c0-26.93-.1-53.87.1-80.8,0-4.55-1.09-6-5.85-6q-80.8.24-161.6,0c-4.39,0-5.73,1.25-5.72,5.69q0.21,81,0,162.06c0,4.37,1.15,5.7,5.63,5.69q81-.22,162.06,0c4.18,0,5.5-1.06,5.47-5.36C834.67,274.9,834.77,247.81,834.77,220.73ZM735,270.22c-10.22-.58-20.51-0.32-30.75,0-4.39.13-5.36-1.47-5.34-5.54q0.22-43.84,0-87.69c0-4.29,1-5.92,5.56-5.77,10.24,0.33,20.5.09,30.76,0.11,12,0,21.44,6.19,24.74,16.12,3.62,10.89.74,18.92-9.7,27.05a8.22,8.22,0,0,0-1,1.25c7,4.73,12.33,10.6,14,19.1C767.36,256.81,749.12,271,735,270.22Zm62-22.88c-2.69,12.09-10.4,20-22.35,22.24-7.36,1.38-15.19.26-22.81,0.26,11.86-4.21,21.86-10.33,24.11-23.77s-4-23-15.92-30.09c9.34-5.57,16.26-12.43,14-23.78-2-10.21-8.31-17.08-18.67-20.21,9.34-.43,18.55-2.18,27.28,2.39A23,23,0,0,1,786.32,213c-1,.75-1.94,1.47-3.23,2.44,1.34,1.05,2.52,1.95,3.67,2.88C796.05,225.93,799.6,235.64,797,247.34Z" transform="translate(-165.13 -129.77)"/><path class="cls-1" d="M726,216c12.66,7.7,18.64,18,15.54,32-2.36,10.72-9.18,17.57-20.45,20.64v-95.8c9.93,1.94,15.56,8,18.29,16.91C743.19,202.12,736.36,209.67,726,216Z" transform="translate(-165.13 -129.77)"/></svg>